<svg width="122" height="122" viewBox="0 0 122 122" fill="none" xmlns="http://www.w3.org/2000/svg">
<g id="div">
<rect id="div_2" width="10" height="10" rx="5" fill="#81818B" fill-opacity="0.2"/>
<rect id="div_3" x="16" width="10" height="10" rx="5" fill="#81818B" fill-opacity="0.2"/>
<rect id="div_4" x="32" width="10" height="10" rx="5" fill="#81818B" fill-opacity="0.2"/>
<rect id="div_5" x="48" width="10" height="10" rx="5" fill="#81818B" fill-opacity="0.2"/>
<rect id="div_6" x="64" width="10" height="10" rx="5" fill="#81818B" fill-opacity="0.2"/>
<rect id="div_7" x="80" width="10" height="10" rx="5" fill="#81818B" fill-opacity="0.2"/>
<rect id="div_8" x="96" width="10" height="10" rx="5" fill="#81818B" fill-opacity="0.2"/>
<rect id="div_9" x="112" width="10" height="10" rx="5" fill="#81818B" fill-opacity="0.2"/>
<rect id="div_10" y="16" width="10" height="10" rx="5" fill="#81818B" fill-opacity="0.2"/>
<rect id="div_11" x="16" y="16" width="10" height="10" rx="5" fill="#81818B" fill-opacity="0.2"/>
<rect id="div_12" x="32" y="16" width="10" height="10" rx="5" fill="#81818B" fill-opacity="0.2"/>
<rect id="div_13" x="48" y="16" width="10" height="10" rx="5" fill="#81818B" fill-opacity="0.2"/>
<rect id="div_14" x="64" y="16" width="10" height="10" rx="5" fill="#81818B" fill-opacity="0.2"/>
<rect id="div_15" x="80" y="16" width="10" height="10" rx="5" fill="#81818B" fill-opacity="0.2"/>
<rect id="div_16" x="96" y="16" width="10" height="10" rx="5" fill="#81818B" fill-opacity="0.2"/>
<rect id="div_17" x="112" y="16" width="10" height="10" rx="5" fill="#81818B" fill-opacity="0.2"/>
<rect id="div_18" y="32" width="10" height="10" rx="5" fill="#81818B" fill-opacity="0.2"/>
<rect id="div_19" x="16" y="32" width="10" height="10" rx="5" fill="#81818B" fill-opacity="0.2"/>
<rect id="div_20" x="32" y="32" width="10" height="10" rx="5" fill="#81818B" fill-opacity="0.2"/>
<rect id="div_21" x="48" y="32" width="10" height="10" rx="5" fill="#81818B" fill-opacity="0.2"/>
<rect id="div_22" x="64" y="32" width="10" height="10" rx="5" fill="#81818B" fill-opacity="0.2"/>
<rect id="div_23" x="80" y="32" width="10" height="10" rx="5" fill="#81818B" fill-opacity="0.2"/>
<rect id="div_24" x="96" y="32" width="10" height="10" rx="5" fill="#81818B" fill-opacity="0.2"/>
<rect id="div_25" x="112" y="32" width="10" height="10" rx="5" fill="#81818B" fill-opacity="0.2"/>
<rect id="div_26" y="48" width="10" height="10" rx="5" fill="#81818B" fill-opacity="0.2"/>
<rect id="div_27" x="16" y="48" width="10" height="10" rx="5" fill="#81818B" fill-opacity="0.2"/>
<rect id="div_28" x="32" y="48" width="10" height="10" rx="5" fill="#81818B" fill-opacity="0.2"/>
<rect id="div_29" x="48" y="48" width="10" height="10" rx="5" fill="#81818B" fill-opacity="0.2"/>
<rect id="div_30" x="64" y="48" width="10" height="10" rx="5" fill="#81818B" fill-opacity="0.2"/>
<rect id="div_31" x="80" y="48" width="10" height="10" rx="5" fill="#81818B" fill-opacity="0.2"/>
<rect id="div_32" x="96" y="48" width="10" height="10" rx="5" fill="#81818B" fill-opacity="0.2"/>
<rect id="div_33" x="112" y="48" width="10" height="10" rx="5" fill="#81818B" fill-opacity="0.2"/>
<rect id="div_34" y="64" width="10" height="10" rx="5" fill="#81818B" fill-opacity="0.2"/>
<rect id="div_35" x="16" y="64" width="10" height="10" rx="5" fill="#81818B" fill-opacity="0.2"/>
<rect id="div_36" x="32" y="64" width="10" height="10" rx="5" fill="#81818B" fill-opacity="0.2"/>
<rect id="div_37" x="48" y="64" width="10" height="10" rx="5" fill="#81818B" fill-opacity="0.2"/>
<rect id="div_38" x="64" y="64" width="10" height="10" rx="5" fill="#81818B" fill-opacity="0.2"/>
<rect id="div_39" x="80" y="64" width="10" height="10" rx="5" fill="#81818B" fill-opacity="0.2"/>
<rect id="div_40" x="96" y="64" width="10" height="10" rx="5" fill="#81818B" fill-opacity="0.2"/>
<rect id="div_41" x="112" y="64" width="10" height="10" rx="5" fill="#81818B" fill-opacity="0.2"/>
<rect id="div_42" y="80" width="10" height="10" rx="5" fill="#81818B" fill-opacity="0.2"/>
<rect id="div_43" x="16" y="80" width="10" height="10" rx="5" fill="#81818B" fill-opacity="0.2"/>
<rect id="div_44" x="32" y="80" width="10" height="10" rx="5" fill="#81818B" fill-opacity="0.2"/>
<rect id="div_45" x="48" y="80" width="10" height="10" rx="5" fill="#81818B" fill-opacity="0.2"/>
<rect id="div_46" x="64" y="80" width="10" height="10" rx="5" fill="#81818B" fill-opacity="0.2"/>
<rect id="div_47" x="80" y="80" width="10" height="10" rx="5" fill="#81818B" fill-opacity="0.2"/>
<rect id="div_48" x="96" y="80" width="10" height="10" rx="5" fill="#81818B" fill-opacity="0.2"/>
<rect id="div_49" x="112" y="80" width="10" height="10" rx="5" fill="#81818B" fill-opacity="0.2"/>
<rect id="div_50" y="96" width="10" height="10" rx="5" fill="#81818B" fill-opacity="0.2"/>
<rect id="div_51" x="16" y="96" width="10" height="10" rx="5" fill="#81818B" fill-opacity="0.2"/>
<rect id="div_52" x="32" y="96" width="10" height="10" rx="5" fill="#81818B" fill-opacity="0.2"/>
<rect id="div_53" x="48" y="96" width="10" height="10" rx="5" fill="#81818B" fill-opacity="0.2"/>
<rect id="div_54" x="64" y="96" width="10" height="10" rx="5" fill="#81818B" fill-opacity="0.2"/>
<rect id="div_55" x="80" y="96" width="10" height="10" rx="5" fill="#81818B" fill-opacity="0.2"/>
<rect id="div_56" x="96" y="96" width="10" height="10" rx="5" fill="#81818B" fill-opacity="0.2"/>
<rect id="div_57" x="112" y="96" width="10" height="10" rx="5" fill="#81818B" fill-opacity="0.2"/>
<rect id="div_58" y="112" width="10" height="10" rx="5" fill="#81818B" fill-opacity="0.2"/>
<rect id="div_59" x="16" y="112" width="10" height="10" rx="5" fill="#81818B" fill-opacity="0.2"/>
<rect id="div_60" x="32" y="112" width="10" height="10" rx="5" fill="#81818B" fill-opacity="0.2"/>
<rect id="div_61" x="48" y="112" width="10" height="10" rx="5" fill="#81818B" fill-opacity="0.2"/>
<rect id="div_62" x="64" y="112" width="10" height="10" rx="5" fill="#81818B" fill-opacity="0.2"/>
<rect id="div_63" x="80" y="112" width="10" height="10" rx="5" fill="#81818B" fill-opacity="0.2"/>
<rect id="div_64" x="96" y="112" width="10" height="10" rx="5" fill="#81818B" fill-opacity="0.2"/>
<rect id="div_65" x="112" y="112" width="10" height="10" rx="5" fill="#81818B" fill-opacity="0.2"/>
</g>
</svg>
