<svg width="76" height="76" viewBox="0 0 76 76" fill="none" xmlns="http://www.w3.org/2000/svg">
<rect width="76" height="76" fill="#1E1E1E"/>
<g id="Marketing solutions landing page design">
<rect width="1512" height="7280.19" transform="translate(-691 -1794)" fill="#0D0D11"/>
<g id="div" filter="url(#filter0_d_0_1)">
<g id="main">
<g id="div_2">
<g id="div#w-node-_71641a42-1add-d3c5-b330-79275d827d08-6beaf798">
<g id="div_3">
<g id="a">
<rect x="-25.2812" y="-54.7344" width="315.625" height="340" rx="30" fill="#81818B" fill-opacity="0.1"/>
<g id="div_4" clip-path="url(#clip0_0_1)">
<g id="email 1" clip-path="url(#clip1_0_1)">
<g id="Group">
<path id="Vector" opacity="0.06" d="M54.9787 0H21.0213C9.41155 0 0 9.41155 0 21.0213V54.9787C0 66.5885 9.41155 76 21.0213 76H54.9787C66.5885 76 76 66.5885 76 54.9787V21.0213C76 9.41155 66.5885 0 54.9787 0Z" fill="#F6CA4F"/>
<path id="Vector_2" d="M38.0001 63.8788C52.2925 63.8788 63.8788 52.2925 63.8788 38.0001C63.8788 23.7076 52.2925 12.1213 38.0001 12.1213C23.7076 12.1213 12.1213 23.7076 12.1213 38.0001C12.1213 52.2925 23.7076 63.8788 38.0001 63.8788Z" fill="#FF6D35"/>
<path id="Vector_3" d="M47.5506 49.6729H28.4495C26.1149 49.6729 24.2048 47.7628 24.2048 45.4282V30.5718C24.2048 28.2373 26.1149 26.3271 28.4495 26.3271H47.5506C49.8852 26.3271 51.7953 28.2373 51.7953 30.5718V45.4282C51.7953 47.7628 49.8852 49.6729 47.5506 49.6729Z" stroke="white" stroke-width="2" stroke-miterlimit="10" stroke-linecap="round" stroke-linejoin="round"/>
<path id="Vector_4" d="M24.2048 31.6329L38 40.1223L51.7953 31.6329" stroke="white" stroke-width="2" stroke-miterlimit="10" stroke-linecap="round" stroke-linejoin="round"/>
</g>
</g>
</g>
</g>
</g>
</g>
</g>
</g>
</g>
</g>
<defs>
<filter id="filter0_d_0_1" x="-762" y="-1794" width="1587" height="7288.19" filterUnits="userSpaceOnUse" color-interpolation-filters="sRGB">
<feFlood flood-opacity="0" result="BackgroundImageFix"/>
<feColorMatrix in="SourceAlpha" type="matrix" values="0 0 0 0 0 0 0 0 0 0 0 0 0 0 0 0 0 0 127 0" result="hardAlpha"/>
<feOffset dy="4"/>
<feGaussianBlur stdDeviation="2"/>
<feComposite in2="hardAlpha" operator="out"/>
<feColorMatrix type="matrix" values="0 0 0 0 0 0 0 0 0 0 0 0 0 0 0 0 0 0 0.25 0"/>
<feBlend mode="normal" in2="BackgroundImageFix" result="effect1_dropShadow_0_1"/>
<feBlend mode="normal" in="SourceGraphic" in2="effect1_dropShadow_0_1" result="shape"/>
</filter>
<clipPath id="clip0_0_1">
<rect width="75.5938" height="75.5938" fill="white" transform="translate(-0.28125 0.265625)"/>
</clipPath>
<clipPath id="clip1_0_1">
<rect width="76" height="76" fill="white"/>
</clipPath>
</defs>
</svg>
