<svg width="76" height="76" viewBox="0 0 76 76" fill="none" xmlns="http://www.w3.org/2000/svg">
<rect width="76" height="76" fill="#1E1E1E"/>
<g id="Marketing solutions landing page design">
<rect width="1512" height="7280.19" transform="translate(-1038 -1374)" fill="#0D0D11"/>
<g id="div" filter="url(#filter0_d_0_1)">
<g id="main">
<g id="div_2">
<g id="div#w-node-_71641a42-1add-d3c5-b330-79275d827d08-6beaf798">
<g id="div_3">
<g id="a">
<rect x="-24.6562" y="-54.7344" width="315.625" height="335.594" rx="30" fill="#81818B" fill-opacity="0.1"/>
<g id="div_4" clip-path="url(#clip0_0_1)">
<g id="630cd8051fc37f5b7201d0d8_paid-advertising-service-icon.svg">
<g id="630cd8051fc37f5b7201d0d8_paid-advertising-service-icon.svg_2" clip-path="url(#clip1_0_1)">
<g id="Group">
<path id="Vector" opacity="0.06" d="M55.0286 0.265625H21.2527C9.70499 0.265625 0.34375 9.62687 0.34375 21.1745V54.9505C0.34375 66.4981 9.70499 75.8594 21.2527 75.8594H55.0286C66.5763 75.8594 75.9375 66.4981 75.9375 54.9505V21.1745C75.9375 9.62687 66.5763 0.265625 55.0286 0.265625Z" fill="#FF6F35"/>
<path id="Vector_2" d="M38.1407 63.8029C52.3567 63.8029 63.8811 52.2786 63.8811 38.0625C63.8811 23.8465 52.3567 12.3221 38.1407 12.3221C23.9246 12.3221 12.4003 23.8465 12.4003 38.0625C12.4003 52.2786 23.9246 63.8029 38.1407 63.8029Z" fill="#FFCD1D"/>
<path id="Vector_3" d="M38.1406 21.8447V54.2804" stroke="white" stroke-width="2.41257" stroke-linecap="round" stroke-linejoin="round"/>
<path id="Vector_4" d="M45.5124 27.7421H34.4548C33.0862 27.7421 31.7737 28.2857 30.8059 29.2535C29.8382 30.2211 29.2946 31.5337 29.2946 32.9022C29.2946 34.2708 29.8382 35.5833 30.8059 36.5511C31.7737 37.5188 33.0862 38.0625 34.4548 38.0625H41.8265C43.195 38.0625 44.5076 38.6061 45.4753 39.5739C46.4431 40.5415 46.9867 41.8541 46.9867 43.2227C46.9867 44.5913 46.4431 45.9038 45.4753 46.8715C44.5076 47.8392 43.195 48.3829 41.8265 48.3829H29.2946" stroke="white" stroke-width="2.41257" stroke-linecap="round" stroke-linejoin="round"/>
</g>
</g>
</g>
</g>
</g>
</g>
</g>
</g>
</g>
</g>
</g>
<defs>
<filter id="filter0_d_0_1" x="-1109" y="-1374" width="1587" height="7288.19" filterUnits="userSpaceOnUse" color-interpolation-filters="sRGB">
<feFlood flood-opacity="0" result="BackgroundImageFix"/>
<feColorMatrix in="SourceAlpha" type="matrix" values="0 0 0 0 0 0 0 0 0 0 0 0 0 0 0 0 0 0 127 0" result="hardAlpha"/>
<feOffset dy="4"/>
<feGaussianBlur stdDeviation="2"/>
<feComposite in2="hardAlpha" operator="out"/>
<feColorMatrix type="matrix" values="0 0 0 0 0 0 0 0 0 0 0 0 0 0 0 0 0 0 0.25 0"/>
<feBlend mode="normal" in2="BackgroundImageFix" result="effect1_dropShadow_0_1"/>
<feBlend mode="normal" in="SourceGraphic" in2="effect1_dropShadow_0_1" result="shape"/>
</filter>
<clipPath id="clip0_0_1">
<rect width="75.5938" height="75.5938" fill="white" transform="translate(0.34375 0.265625)"/>
</clipPath>
<clipPath id="clip1_0_1">
<rect width="75.5938" height="75.5938" fill="white" transform="translate(0.34375 0.265625)"/>
</clipPath>
</defs>
</svg>
